<?xml version="1.0" encoding="UTF-8" standalone="no"?>
<svg
   xmlns:dc="http://purl.org/dc/elements/1.1/"
   xmlns:cc="http://creativecommons.org/ns#"
   xmlns:rdf="http://www.w3.org/1999/02/22-rdf-syntax-ns#"
   xmlns:svg="http://www.w3.org/2000/svg"
   xmlns="http://www.w3.org/2000/svg"
   xmlns:sodipodi="http://sodipodi.sourceforge.net/DTD/sodipodi-0.dtd"
   xmlns:inkscape="http://www.inkscape.org/namespaces/inkscape"
   version="1.1"
   id="svg2"
   viewBox="0 0 12 11.999999"
   height="12"
   width="12"
   sodipodi:docname="inbox-light.svg"
   inkscape:version="0.92.1 r">
  <sodipodi:namedview
     pagecolor="#ffffff"
     bordercolor="#666666"
     borderopacity="1"
     objecttolerance="10"
     gridtolerance="10"
     guidetolerance="10"
     inkscape:pageopacity="0"
     inkscape:pageshadow="2"
     inkscape:window-width="743"
     inkscape:window-height="480"
     id="namedview7"
     showgrid="false"
     inkscape:zoom="19.666667"
     inkscape:cx="6"
     inkscape:cy="6"
     inkscape:window-x="36"
     inkscape:window-y="0"
     inkscape:window-maximized="0"
     inkscape:current-layer="svg2" />
  <defs
     id="defs4" />
  <metadata
     id="metadata7">
    <rdf:RDF>
      <cc:Work
         rdf:about="">
        <dc:format>image/svg+xml</dc:format>
        <dc:type
           rdf:resource="http://purl.org/dc/dcmitype/StillImage" />
        <dc:title></dc:title>
      </cc:Work>
    </rdf:RDF>
  </metadata>
  <g
     transform="translate(-72.088666,-1434.8647)"
     id="layer1"
     style="fill:#eff1f5;fill-opacity:1" />
  <path
     style="fill:#eff1f5;fill-opacity:1"
     id="rect3336"
     d="m 7.9921875,6.5 2.4687505,0 q -0.0078,-0.023 -0.01953,-0.066 -0.01172,-0.043 -0.01953,-0.059 L 8.765628,2.5 3.234378,2.5 1.578128,6.375 Q 1.570318,6.398 1.558597,6.441 1.546878,6.484 1.539066,6.5 l 2.46875,0 L 4.75,8 7.25,8 Z M 12,6.7344 12,10.5 q 0,0.2031 -0.148437,0.3516 Q 11.703125,11 11.5,11 l -11,0 Q 0.296875,11 0.1484375,10.8516 0,10.7031 0,10.5 L 0,6.7344 Q 0,6.25 0.1953125,5.7734 l 1.859375,-4.3125005 q 0.078125,-0.1953 0.2851563,-0.3281 Q 2.546875,0.99999952 2.75,0.99999952 l 6.5,0 q 0.203125,0 0.4101563,0.13279998 0.2070312,0.1328 0.2851562,0.3281 L 11.804688,5.7734 Q 12,6.25 12,6.7344 Z" />
</svg>
