<?xml version="1.0" encoding="UTF-8" standalone="no"?>
<svg
   xmlns:dc="http://purl.org/dc/elements/1.1/"
   xmlns:cc="http://creativecommons.org/ns#"
   xmlns:rdf="http://www.w3.org/1999/02/22-rdf-syntax-ns#"
   xmlns:svg="http://www.w3.org/2000/svg"
   xmlns="http://www.w3.org/2000/svg"
   xmlns:sodipodi="http://sodipodi.sourceforge.net/DTD/sodipodi-0.dtd"
   xmlns:inkscape="http://www.inkscape.org/namespaces/inkscape"
   version="1.1"
   id="svg2"
   viewBox="0 0 12 11.999999"
   height="12"
   width="12"
   sodipodi:docname="template-light.svg"
   inkscape:version="0.92.1 r">
  <sodipodi:namedview
     pagecolor="#ffffff"
     bordercolor="#666666"
     borderopacity="1"
     objecttolerance="10"
     gridtolerance="10"
     guidetolerance="10"
     inkscape:pageopacity="0"
     inkscape:pageshadow="2"
     inkscape:window-width="743"
     inkscape:window-height="480"
     id="namedview7"
     showgrid="false"
     inkscape:zoom="19.666667"
     inkscape:cx="6"
     inkscape:cy="6"
     inkscape:window-x="36"
     inkscape:window-y="0"
     inkscape:window-maximized="0"
     inkscape:current-layer="svg2" />
  <defs
     id="defs4" />
  <metadata
     id="metadata7">
    <rdf:RDF>
      <cc:Work
         rdf:about="">
        <dc:format>image/svg+xml</dc:format>
        <dc:type
           rdf:resource="http://purl.org/dc/dcmitype/StillImage" />
        <dc:title></dc:title>
      </cc:Work>
    </rdf:RDF>
  </metadata>
  <g
     transform="translate(-72.088666,-1434.8647)"
     id="layer1"
     style="fill:#eff1f5;fill-opacity:1" />
  <path
     style="fill:#eff1f5;fill-opacity:1"
     id="rect3336"
     d="m 10.6875,3.1875 q 0.09375,0.094 0.1875,0.2411 l -3.1607141,0 0,-3.16070048 q 0.1473214,0.094 0.2410714,0.1874 z m -3.1874999,1.0982 3.6428569,0 0,7.0714 q 0,0.2679 -0.1875,0.4554 Q 10.767857,12 10.5,12 L 1.5000001,12 Q 1.232143,12 1.044643,11.8125 0.857143,11.625 0.857143,11.3571 l 0,-10.71420048 q 0,-0.2679 0.1875,-0.4554 Q 1.232143,-4.7683716e-7 1.5000001,-4.7683716e-7 l 5.3571429,0 L 6.857143,3.6429 q 0,0.2678 0.1875,0.4553 0.1875,0.1875 0.4553571,0.1875 z m 1.0714286,4.9286 0,-0.4286 q 0,-0.094 -0.060267,-0.154 -0.060268,-0.06 -0.1540183,-0.06 l -4.7142857,0 q -0.09375,0 -0.1540179,0.06 -0.060268,0.061 -0.060268,0.1543 l 0,0.4286 q 0,0.094 0.060267,0.154 0.060268,0.06 0.1540183,0.06 l 4.7142857,0 q 0.09375,0 0.1540179,-0.06 0.060268,-0.061 0.060268,-0.1543 z m 0,-1.7143 0,-0.4286 q 0,-0.094 -0.060267,-0.154 -0.060268,-0.06 -0.1540183,-0.06 l -4.7142857,0 q -0.09375,0 -0.1540179,0.06 -0.060268,0.061 -0.060268,0.1543 l 0,0.4286 q 0,0.094 0.060267,0.154 0.060268,0.06 0.1540183,0.06 l 4.7142857,0 q 0.09375,0 0.1540179,-0.06 0.060268,-0.06 0.060268,-0.1543 z m 0,-1.7143 0,-0.4286 q 0,-0.094 -0.060267,-0.154 -0.060268,-0.06 -0.1540183,-0.06 l -4.7142857,0 q -0.09375,0 -0.1540179,0.06 -0.060268,0.061 -0.060268,0.1542 l 0,0.4286 q 0,0.094 0.060267,0.154 0.060268,0.06 0.1540183,0.06 L 8.357143,6 q 0.09375,0 0.1540179,-0.06 0.060268,-0.061 0.060268,-0.1543 z" />
</svg>
