<?xml version="1.0" encoding="UTF-8" standalone="no"?>
<svg
   xmlns:dc="http://purl.org/dc/elements/1.1/"
   xmlns:cc="http://creativecommons.org/ns#"
   xmlns:rdf="http://www.w3.org/1999/02/22-rdf-syntax-ns#"
   xmlns:svg="http://www.w3.org/2000/svg"
   xmlns="http://www.w3.org/2000/svg"
   xmlns:sodipodi="http://sodipodi.sourceforge.net/DTD/sodipodi-0.dtd"
   xmlns:inkscape="http://www.inkscape.org/namespaces/inkscape"
   width="12"
   height="12"
   viewBox="0 0 12 11.999999"
   id="svg2"
   version="1.1"
   sodipodi:docname="twisty-light.svg"
   inkscape:version="0.92.1 r">
  <sodipodi:namedview
     pagecolor="#ffffff"
     bordercolor="#666666"
     borderopacity="1"
     objecttolerance="10"
     gridtolerance="10"
     guidetolerance="10"
     inkscape:pageopacity="0"
     inkscape:pageshadow="2"
     inkscape:window-width="743"
     inkscape:window-height="480"
     id="namedview7"
     showgrid="false"
     inkscape:zoom="19.666667"
     inkscape:cx="6"
     inkscape:cy="6"
     inkscape:window-x="36"
     inkscape:window-y="0"
     inkscape:window-maximized="0"
     inkscape:current-layer="svg2" />
  <defs
     id="defs4" />
  <metadata
     id="metadata7">
    <rdf:RDF>
      <cc:Work
         rdf:about="">
        <dc:format>image/svg+xml</dc:format>
        <dc:type
           rdf:resource="http://purl.org/dc/dcmitype/StillImage" />
        <dc:title></dc:title>
      </cc:Work>
    </rdf:RDF>
  </metadata>
  <g
     id="layer1"
     transform="translate(-72.088666,-1434.8647)"
     style="fill:#eff1f5;fill-opacity:1" />
  <path
     style="fill:#eff1f5;fill-opacity:1"
     d="m 9.4990015,5.9999995 q 0,-0.1563 -0.120241,-0.2766 L 3.7755485,0.12019952 Q 3.6553075,-4.7683716e-7 3.4989955,-4.7683716e-7 q -0.156313,0 -0.276554,0.12019999683716 l -0.601202,0.6012 q -0.120241,0.1203 -0.120241,0.2766 0,0.15629998 0.120241,0.27649998 l 4.725455,4.7255 -4.725455,4.7254005 q -0.120241,0.1203 -0.120241,0.2766 0,0.1563 0.120241,0.2766 l 0.601202,0.6012 Q 3.3426825,12 3.4989955,12 q 0.156312,0 0.276553,-0.1202 l 5.603212,-5.6032005 q 0.120241,-0.1203 0.120241,-0.2766 z"
     id="path6189" />
</svg>
